# xmcd CD Database Entry
#
# Track frame offsets:
# 150
# 39985
# 81199
# 115682
# 216201
# 255721
#
# Disc length: 3874 seconds
#
# Revision: 1
# Processed by: cddbd v1.5.1PL0 Copyright (c) Steve Scherf et al.
# Submitted via: tcd 2.0b
#
DISCID=480f2006
DTITLE=Max Bruch (1838-1920) and Johannes Brahms (1833-1897)/ Violin C
DTITLE=oncertos
DYEAR=1900
DGENRE=
TTITLE0=Op. 26  1. Vorspiel (Allegro moderato)
TTITLE1=Op. 26  2. Adagio
TTITLE2=Op. 26  3. Finale (Allegro energico)
TTITLE3=Op. 77  1. Allegro non troppo
TTITLE4=Op. 77  2. Adagio
TTITLE5=Op. 77 3. Allegro griocoso, ma non troppo vivace
EXTD=Royal Liverpool Orchestra and\nTasmin Little (Violin)
EXTT0=
EXTT1=
EXTT2=
EXTT3=
EXTT4=
EXTT5=
PLAYORDER=
